<svg xmlns="http://www.w3.org/2000/svg" width="805" height="600"><rect width="805" height="600" x="0" y="0" fill="#FFFFFF" id="background"/><g id="viz"><g transform="translate(0,0)"><g transform="translate(10,20)"><g><path fill="rgb(245, 199, 43)" d="M0,560C13.534482758620689,560,13.534482758620689,559.4909090909091,27.068965517241377,559.4909090909091C40.603448275862064,559.4909090909091,40.603448275862064,560,54.137931034482754,560C67.67241379310344,560,67.67241379310344,560,81.20689655172414,560C94.74137931034483,560,94.74137931034483,560,108.27586206896551,560C135.3448275862069,560,135.3448275862069,560,162.41379310344828,560C175.94827586206895,560,175.94827586206895,560,189.48275862068965,560C203.01724137931035,560,203.01724137931035,545.0727272727273,216.55172413793102,545.0727272727273C230.08620689655172,545.0727272727273,230.08620689655172,545.6,243.6206896551724,545.6C257.15517241379314,545.6,257.15517241379314,547.3636363636364,270.68965517241384,547.3636363636364C311.29310344827593,547.3636363636364,311.29310344827593,539.4727272727273,351.89655172413796,539.4727272727273C365.4310344827586,539.4727272727273,365.4310344827586,541.7454545454545,378.9655172413793,541.7454545454545C392.5,541.7454545454545,392.5,528.8,406.0344827586207,528.8C419.5689655172414,528.8,419.5689655172414,536.1636363636363,433.10344827586204,536.1636363636363C446.63793103448273,536.1636363636363,446.63793103448273,537.1818181818181,460.17241379310343,537.1818181818181C473.7068965517241,537.1818181818181,473.7068965517241,535.3818181818182,487.2413793103448,535.3818181818182C500.77586206896547,535.3818181818182,500.77586206896547,542.2545454545455,514.3103448275862,542.2545454545455C527.844827586207,542.2545454545455,527.844827586207,552.1636363636363,541.3793103448277,552.1636363636363C554.9137931034484,552.1636363636363,554.9137931034484,544.3272727272727,568.448275862069,544.3272727272727C581.9827586206897,544.3272727272727,581.9827586206897,546.5818181818182,595.5172413793103,546.5818181818182C609.051724137931,546.5818181818182,609.051724137931,559.7454545454545,622.5862068965517,559.7454545454545C636.1206896551724,559.7454545454545,636.1206896551724,544.0545454545454,649.6551724137931,544.0545454545454C663.1896551724137,544.0545454545454,663.1896551724137,559.7454545454545,676.7241379310344,559.7454545454545C690.2586206896551,559.7454545454545,690.2586206896551,559.4909090909091,703.7931034482759,559.4909090909091C717.3275862068965,559.4909090909091,717.3275862068965,559.7454545454545,730.8620689655172,559.7454545454545C744.3965517241379,559.7454545454545,744.3965517241379,558.9818181818182,757.9310344827586,558.9818181818182C771.4655172413793,558.9818181818182,771.4655172413793,558.2181818181818,785,558.2181818181818L785,560C771.4655172413793,560,771.4655172413793,560,757.9310344827586,560C744.3965517241379,560,744.3965517241379,560,730.8620689655172,560C717.3275862068965,560,717.3275862068965,560,703.7931034482759,560C690.2586206896551,560,690.2586206896551,560,676.7241379310344,560C663.1896551724137,560,663.1896551724137,548.1272727272727,649.6551724137931,548.1272727272727C636.1206896551724,548.1272727272727,636.1206896551724,560,622.5862068965517,560C609.051724137931,560,609.051724137931,550.6545454545454,595.5172413793103,550.6545454545454C581.9827586206897,550.6545454545454,581.9827586206897,548.4,568.448275862069,548.4C554.9137931034484,548.4,554.9137931034484,556.2363636363636,541.3793103448277,556.2363636363636C527.844827586207,556.2363636363636,527.844827586207,549.6363636363636,514.3103448275862,549.6363636363636C500.77586206896547,549.6363636363636,500.77586206896547,542.5090909090909,487.2413793103448,542.5090909090909C473.7068965517241,542.5090909090909,473.7068965517241,545.0727272727273,460.17241379310343,545.0727272727273C446.63793103448273,545.0727272727273,446.63793103448273,543.0363636363636,433.10344827586204,543.0363636363636C419.5689655172414,543.0363636363636,419.5689655172414,536.6909090909091,406.0344827586207,536.6909090909091C392.5,536.6909090909091,392.5,545.5636363636363,378.9655172413793,545.5636363636363C365.4310344827586,545.5636363636363,365.4310344827586,544.8181818181819,351.89655172413796,544.8181818181819C311.29310344827593,544.8181818181819,311.29310344827593,552.2,270.68965517241384,552.2C257.15517241379314,552.2,257.15517241379314,548.4,243.6206896551724,548.4C230.08620689655172,548.4,230.08620689655172,548.8909090909091,216.55172413793102,548.8909090909091C203.01724137931035,548.8909090909091,203.01724137931035,560,189.48275862068965,560C175.94827586206895,560,175.94827586206895,560,162.41379310344828,560C135.3448275862069,560,135.3448275862069,560,108.27586206896551,560C94.74137931034483,560,94.74137931034483,560,81.20689655172414,560C67.67241379310344,560,67.67241379310344,560,54.137931034482754,560C40.603448275862064,560,40.603448275862064,560,27.068965517241377,560C13.534482758620689,560,13.534482758620689,560,0,560Z"><title>South Asia</title></path><path fill="rgb(55, 237, 159)" d="M0,559C13.534482758620689,559,13.534482758620689,560,27.068965517241377,560C40.603448275862064,560,40.603448275862064,560,54.137931034482754,560C67.67241379310344,560,67.67241379310344,560,81.20689655172414,560C94.74137931034483,560,94.74137931034483,560,108.27586206896551,560C135.3448275862069,560,135.3448275862069,560,162.41379310344828,560C175.94827586206895,560,175.94827586206895,559,189.48275862068965,559C203.01724137931035,559,203.01724137931035,557.7272727272727,216.55172413793102,557.7272727272727C230.08620689655172,557.7272727272727,230.08620689655172,560,243.6206896551724,560C257.15517241379314,560,257.15517241379314,553.2,270.68965517241384,553.2C311.29310344827593,553.2,311.29310344827593,555.2,351.89655172413796,555.2C365.4310344827586,555.2,365.4310344827586,559.7454545454545,378.9655172413793,559.7454545454545C392.5,559.7454545454545,392.5,560,406.0344827586207,560C419.5689655172414,560,419.5689655172414,557.9818181818182,433.10344827586204,557.9818181818182C446.63793103448273,557.9818181818182,446.63793103448273,558.2363636363636,460.17241379310343,558.2363636363636C473.7068965517241,558.2363636363636,473.7068965517241,559.4909090909091,487.2413793103448,559.4909090909091C500.77586206896547,559.4909090909091,500.77586206896547,558.7454545454545,514.3103448275862,558.7454545454545C527.844827586207,558.7454545454545,527.844827586207,560,541.3793103448277,560C554.9137931034484,560,554.9137931034484,560,568.448275862069,560C581.9827586206897,560,581.9827586206897,555.4545454545455,595.5172413793103,555.4545454545455C609.051724137931,555.4545454545455,609.051724137931,557.9818181818182,622.5862068965517,557.9818181818182C636.1206896551724,557.9818181818182,636.1206896551724,556.7272727272727,649.6551724137931,556.7272727272727C663.1896551724137,556.7272727272727,663.1896551724137,555.9636363636364,676.7241379310344,555.9636363636364C690.2586206896551,555.9636363636364,690.2586206896551,555.9454545454545,703.7931034482759,555.9454545454545C717.3275862068965,555.9454545454545,717.3275862068965,556.7090909090908,730.8620689655172,556.7090909090908C744.3965517241379,556.7090909090908,744.3965517241379,556.4545454545455,757.9310344827586,556.4545454545455C771.4655172413793,556.4545454545455,771.4655172413793,554.9272727272727,785,554.9272727272727L785,557.2181818181818C771.4655172413793,557.2181818181818,771.4655172413793,557.9818181818182,757.9310344827586,557.9818181818182C744.3965517241379,557.9818181818182,744.3965517241379,558.7454545454545,730.8620689655172,558.7454545454545C717.3275862068965,558.7454545454545,717.3275862068965,558.4909090909091,703.7931034482759,558.4909090909091C690.2586206896551,558.4909090909091,690.2586206896551,557.4909090909091,676.7241379310344,557.4909090909091C663.1896551724137,557.4909090909091,663.1896551724137,558,649.6551724137931,558C636.1206896551724,558,636.1206896551724,558.7454545454545,622.5862068965517,558.7454545454545C609.051724137931,558.7454545454545,609.051724137931,556.7272727272727,595.5172413793103,556.7272727272727C581.9827586206897,556.7272727272727,581.9827586206897,560,568.448275862069,560C554.9137931034484,560,554.9137931034484,560,541.3793103448277,560C527.844827586207,560,527.844827586207,559,514.3103448275862,559C500.77586206896547,559,500.77586206896547,560,487.2413793103448,560C473.7068965517241,560,473.7068965517241,558.7454545454545,460.17241379310343,558.7454545454545C446.63793103448273,558.7454545454545,446.63793103448273,558.7454545454545,433.10344827586204,558.7454545454545C419.5689655172414,558.7454545454545,419.5689655172414,560,406.0344827586207,560C392.5,560,392.5,560,378.9655172413793,560C365.4310344827586,560,365.4310344827586,556.4727272727273,351.89655172413796,556.4727272727273C311.29310344827593,556.4727272727273,311.29310344827593,554.4727272727273,270.68965517241384,554.4727272727273C257.15517241379314,554.4727272727273,257.15517241379314,560,243.6206896551724,560C230.08620689655172,560,230.08620689655172,558.7454545454545,216.55172413793102,558.7454545454545C203.01724137931035,558.7454545454545,203.01724137931035,559,189.48275862068965,559C175.94827586206895,559,175.94827586206895,560,162.41379310344828,560C135.3448275862069,560,135.3448275862069,560,108.27586206896551,560C94.74137931034483,560,94.74137931034483,560,81.20689655172414,560C67.67241379310344,560,67.67241379310344,560,54.137931034482754,560C40.603448275862064,560,40.603448275862064,560,27.068965517241377,560C13.534482758620689,560,13.534482758620689,559,0,559Z"><title>North Africa</title></path><path fill="rgb(38, 208, 205)" d="M0,559C13.534482758620689,559,13.534482758620689,557.9818181818182,27.068965517241377,557.9818181818182C40.603448275862064,557.9818181818182,40.603448275862064,552.6909090909091,54.137931034482754,552.6909090909091C67.67241379310344,552.6909090909091,67.67241379310344,560,81.20689655172414,560C94.74137931034483,560,94.74137931034483,560,108.27586206896551,560C135.3448275862069,560,135.3448275862069,556.4545454545455,162.41379310344828,556.4545454545455C175.94827586206895,556.4545454545455,175.94827586206895,540,189.48275862068965,540C203.01724137931035,540,203.01724137931035,515.0727272727272,216.55172413793102,515.0727272727272C230.08620689655172,515.0727272727272,230.08620689655172,552.1818181818181,243.6206896551724,552.1818181818181C257.15517241379314,552.1818181818181,257.15517241379314,533.1454545454545,270.68965517241384,533.1454545454545C311.29310344827593,533.1454545454545,311.29310344827593,526.7636363636364,351.89655172413796,526.7636363636364C365.4310344827586,526.7636363636364,365.4310344827586,523.9636363636364,378.9655172413793,523.9636363636364C392.5,523.9636363636364,392.5,545.309090909091,406.0344827586207,545.309090909091C419.5689655172414,545.309090909091,419.5689655172414,544.0363636363636,433.10344827586204,544.0363636363636C446.63793103448273,544.0363636363636,446.63793103448273,546.0727272727273,460.17241379310343,546.0727272727273C473.7068965517241,546.0727272727273,473.7068965517241,543.5090909090909,487.2413793103448,543.5090909090909C500.77586206896547,543.5090909090909,500.77586206896547,533.6181818181818,514.3103448275862,533.6181818181818C527.844827586207,533.6181818181818,527.844827586207,542.5090909090909,541.3793103448277,542.5090909090909C554.9137931034484,542.5090909090909,554.9137931034484,524.7636363636364,568.448275862069,524.7636363636364C581.9827586206897,524.7636363636364,581.9827586206897,531.0727272727273,595.5172413793103,531.0727272727273C609.051724137931,531.0727272727273,609.051724137931,516.5818181818182,622.5862068965517,516.5818181818182C636.1206896551724,516.5818181818182,636.1206896551724,487.8545454545455,649.6551724137931,487.8545454545455C663.1896551724137,487.8545454545455,663.1896551724137,415.3272727272727,676.7241379310344,415.3272727272727C690.2586206896551,415.3272727272727,690.2586206896551,335.90909090909093,703.7931034482759,335.90909090909093C717.3275862068965,335.90909090909093,717.3275862068965,405.6363636363636,730.8620689655172,405.6363636363636C744.3965517241379,405.6363636363636,744.3965517241379,344.30909090909086,757.9310344827586,344.30909090909086C771.4655172413793,344.30909090909086,771.4655172413793,442.5272727272727,785,442.5272727272727L785,486.8181818181818C771.4655172413793,486.8181818181818,771.4655172413793,398.2727272727273,757.9310344827586,398.2727272727273C744.3965517241379,398.2727272727273,744.3965517241379,455.0181818181818,730.8620689655172,455.0181818181818C717.3275862068965,455.0181818181818,717.3275862068965,386.05454545454546,703.7931034482759,386.05454545454546C690.2586206896551,386.05454545454546,690.2586206896551,458.0909090909091,676.7241379310344,458.0909090909091C663.1896551724137,458.0909090909091,663.1896551724137,512.5454545454545,649.6551724137931,512.5454545454545C636.1206896551724,512.5454545454545,636.1206896551724,533.3818181818182,622.5862068965517,533.3818181818182C609.051724137931,533.3818181818182,609.051724137931,545.5818181818182,595.5172413793103,545.5818181818182C581.9827586206897,545.5818181818182,581.9827586206897,536.4727272727273,568.448275862069,536.4727272727273C554.9137931034484,536.4727272727273,554.9137931034484,551.1636363636363,541.3793103448277,551.1636363636363C527.844827586207,551.1636363636363,527.844827586207,541.2545454545455,514.3103448275862,541.2545454545455C500.77586206896547,541.2545454545455,500.77586206896547,550.3818181818182,487.2413793103448,550.3818181818182C473.7068965517241,550.3818181818182,473.7068965517241,552.1818181818181,460.17241379310343,552.1818181818181C446.63793103448273,552.1818181818181,446.63793103448273,550.1454545454545,433.10344827586204,550.1454545454545C419.5689655172414,550.1454545454545,419.5689655172414,551.1636363636363,406.0344827586207,551.1636363636363C392.5,551.1636363636363,392.5,533.8909090909091,378.9655172413793,533.8909090909091C365.4310344827586,533.8909090909091,365.4310344827586,538.4727272727273,351.89655172413796,538.4727272727273C311.29310344827593,538.4727272727273,311.29310344827593,540.0181818181818,270.68965517241384,540.0181818181818C257.15517241379314,540.0181818181818,257.15517241379314,553.9636363636364,243.6206896551724,553.9636363636364C230.08620689655172,553.9636363636364,230.08620689655172,529.3272727272728,216.55172413793102,529.3272727272728C203.01724137931035,529.3272727272728,203.01724137931035,550.1818181818181,189.48275862068965,550.1818181818181C175.94827586206895,550.1818181818181,175.94827586206895,558.2363636363636,162.41379310344828,558.2363636363636C135.3448275862069,558.2363636363636,135.3448275862069,560,108.27586206896551,560C94.74137931034483,560,94.74137931034483,560,81.20689655172414,560C67.67241379310344,560,67.67241379310344,554.9818181818182,54.137931034482754,554.9818181818182C40.603448275862064,554.9818181818182,40.603448275862064,558.4909090909091,27.068965517241377,558.4909090909091C13.534482758620689,558.4909090909091,13.534482758620689,559,0,559Z"><title>Latin America and the Caribbean</title></path><path fill="rgb(168, 22, 4)" d="M0,558C13.534482758620689,558,13.534482758620689,560,27.068965517241377,560C40.603448275862064,560,40.603448275862064,560,54.137931034482754,560C67.67241379310344,560,67.67241379310344,560,81.20689655172414,560C94.74137931034483,560,94.74137931034483,559,108.27586206896551,559C135.3448275862069,559,135.3448275862069,560,162.41379310344828,560C175.94827586206895,560,175.94827586206895,558,189.48275862068965,558C203.01724137931035,558,203.01724137931035,560,216.55172413793102,560C230.08620689655172,560,230.08620689655172,559,243.6206896551724,559C257.15517241379314,559,257.15517241379314,556.9818181818182,270.68965517241384,556.9818181818182C311.29310344827593,556.9818181818182,311.29310344827593,550.8909090909091,351.89655172413796,550.8909090909091C365.4310344827586,550.8909090909091,365.4310344827586,555.6909090909091,378.9655172413793,555.6909090909091C392.5,555.6909090909091,392.5,552.1636363636363,406.0344827586207,552.1636363636363C419.5689655172414,552.1636363636363,419.5689655172414,551.1454545454545,433.10344827586204,551.1454545454545C446.63793103448273,551.1454545454545,446.63793103448273,553.1818181818181,460.17241379310343,553.1818181818181C473.7068965517241,553.1818181818181,473.7068965517241,556.7090909090908,487.2413793103448,556.7090909090908C500.77586206896547,556.7090909090908,500.77586206896547,556.4727272727273,514.3103448275862,556.4727272727273C527.844827586207,556.4727272727273,527.844827586207,557.2363636363636,541.3793103448277,557.2363636363636C554.9137931034484,557.2363636363636,554.9137931034484,556.7454545454545,568.448275862069,556.7454545454545C581.9827586206897,556.7454545454545,581.9827586206897,557.7272727272727,595.5172413793103,557.7272727272727C609.051724137931,557.7272727272727,609.051724137931,556.2181818181818,622.5862068965517,556.2181818181818C636.1206896551724,556.2181818181818,636.1206896551724,549.1272727272727,649.6551724137931,549.1272727272727C663.1896551724137,549.1272727272727,663.1896551724137,542.5272727272727,676.7241379310344,542.5272727272727C690.2586206896551,542.5272727272727,690.2586206896551,540.7272727272727,703.7931034482759,540.7272727272727C717.3275862068965,540.7272727272727,717.3275862068965,539.709090909091,730.8620689655172,539.709090909091C744.3965517241379,539.709090909091,744.3965517241379,535.8909090909091,757.9310344827586,535.8909090909091C771.4655172413793,535.8909090909091,771.4655172413793,524.4545454545455,785,524.4545454545455L785,535.9090909090909C771.4655172413793,535.9090909090909,771.4655172413793,543.5272727272727,757.9310344827586,543.5272727272727C744.3965517241379,543.5272727272727,744.3965517241379,547.0909090909091,730.8620689655172,547.0909090909091C717.3275862068965,547.0909090909091,717.3275862068965,546.8363636363637,703.7931034482759,546.8363636363637C690.2586206896551,546.8363636363637,690.2586206896551,546.6,676.7241379310344,546.6C663.1896551724137,546.6,663.1896551724137,552.1818181818181,649.6551724137931,552.1818181818181C636.1206896551724,552.1818181818181,636.1206896551724,556.9818181818182,622.5862068965517,556.9818181818182C609.051724137931,556.9818181818182,609.051724137931,558.7454545454545,595.5172413793103,558.7454545454545C581.9827586206897,558.7454545454545,581.9827586206897,557,568.448275862069,557C554.9137931034484,557,554.9137931034484,557.7454545454545,541.3793103448277,557.7454545454545C527.844827586207,557.7454545454545,527.844827586207,557.7454545454545,514.3103448275862,557.7454545454545C500.77586206896547,557.7454545454545,500.77586206896547,558.4909090909091,487.2413793103448,558.4909090909091C473.7068965517241,558.4909090909091,473.7068965517241,555.2181818181818,460.17241379310343,555.2181818181818C446.63793103448273,555.2181818181818,446.63793103448273,554.7090909090908,433.10344827586204,554.7090909090908C419.5689655172414,554.7090909090908,419.5689655172414,555.2181818181818,406.0344827586207,555.2181818181818C392.5,555.2181818181818,392.5,558.7454545454545,378.9655172413793,558.7454545454545C365.4310344827586,558.7454545454545,365.4310344827586,554.2,351.89655172413796,554.2C311.29310344827593,554.2,311.29310344827593,557.4909090909091,270.68965517241384,557.4909090909091C257.15517241379314,557.4909090909091,257.15517241379314,559,243.6206896551724,559C230.08620689655172,559,230.08620689655172,560,216.55172413793102,560C203.01724137931035,560,203.01724137931035,558,189.48275862068965,558C175.94827586206895,558,175.94827586206895,560,162.41379310344828,560C135.3448275862069,560,135.3448275862069,559,108.27586206896551,559C94.74137931034483,559,94.74137931034483,560,81.20689655172414,560C67.67241379310344,560,67.67241379310344,560,54.137931034482754,560C40.603448275862064,560,40.603448275862064,560,27.068965517241377,560C13.534482758620689,560,13.534482758620689,558,0,558Z"><title>Western Asia</title></path><path fill="rgb(35, 23, 27)" d="M0,557.4909090909091C13.534482758620689,557.4909090909091,13.534482758620689,555.7090909090908,27.068965517241377,555.7090909090908C40.603448275862064,555.7090909090908,40.603448275862064,560,54.137931034482754,560C67.67241379310344,560,67.67241379310344,550.1090909090909,81.20689655172414,550.1090909090909C94.74137931034483,550.1090909090909,94.74137931034483,552.6727272727273,108.27586206896551,552.6727272727273C135.3448275862069,552.6727272727273,135.3448275862069,553.6727272727273,162.41379310344828,553.6727272727273C175.94827586206895,553.6727272727273,175.94827586206895,551.1818181818181,189.48275862068965,551.1818181818181C203.01724137931035,551.1818181818181,203.01724137931035,555.4545454545455,216.55172413793102,555.4545454545455C230.08620689655172,555.4545454545455,230.08620689655172,549.4,243.6206896551724,549.4C257.15517241379314,549.4,257.15517241379314,555.4727272727273,270.68965517241384,555.4727272727273C311.29310344827593,555.4727272727273,311.29310344827593,545.8181818181819,351.89655172413796,545.8181818181819C365.4310344827586,545.8181818181819,365.4310344827586,534.8909090909091,378.9655172413793,534.8909090909091C392.5,534.8909090909091,392.5,500.07272727272726,406.0344827586207,500.07272727272726C419.5689655172414,500.07272727272726,419.5689655172414,507.4545454545454,433.10344827586204,507.4545454545454C446.63793103448273,507.4545454545454,446.63793103448273,523.9636363636364,460.17241379310343,523.9636363636364C473.7068965517241,523.9636363636364,473.7068965517241,505.6363636363636,487.2413793103448,505.6363636363636C500.77586206896547,505.6363636363636,500.77586206896547,523.9636363636364,514.3103448275862,523.9636363636364C527.844827586207,523.9636363636364,527.844827586207,528.5272727272727,541.3793103448277,528.5272727272727C554.9137931034484,528.5272727272727,554.9137931034484,549.4,568.448275862069,549.4C581.9827586206897,549.4,581.9827586206897,511.4909090909091,595.5172413793103,511.4909090909091C609.051724137931,511.4909090909091,609.051724137931,534.3818181818182,622.5862068965517,534.3818181818182C636.1206896551724,534.3818181818182,636.1206896551724,513.5454545454545,649.6551724137931,513.5454545454545C663.1896551724137,513.5454545454545,663.1896551724137,459.0909090909091,676.7241379310344,459.0909090909091C690.2586206896551,459.0909090909091,690.2586206896551,387.05454545454546,703.7931034482759,387.05454545454546C717.3275862068965,387.05454545454546,717.3275862068965,456.0181818181818,730.8620689655172,456.0181818181818C744.3965517241379,456.0181818181818,744.3965517241379,399.2727272727273,757.9310344827586,399.2727272727273C771.4655172413793,399.2727272727273,771.4655172413793,487.8181818181818,785,487.8181818181818L785,523.4545454545455C771.4655172413793,523.4545454545455,771.4655172413793,440.76363636363635,757.9310344827586,440.76363636363635C744.3965517241379,440.76363636363635,744.3965517241379,497.5090909090909,730.8620689655172,497.5090909090909C717.3275862068965,497.5090909090909,717.3275862068965,434.6545454545455,703.7931034482759,434.6545454545455C690.2586206896551,434.6545454545455,690.2586206896551,494.9818181818182,676.7241379310344,494.9818181818182C663.1896551724137,494.9818181818182,663.1896551724137,531.8727272727273,649.6551724137931,531.8727272727273C636.1206896551724,531.8727272727273,636.1206896551724,549.1454545454545,622.5862068965517,549.1454545454545C609.051724137931,549.1454545454545,609.051724137931,530.0727272727273,595.5172413793103,530.0727272727273C581.9827586206897,530.0727272727273,581.9827586206897,552.4545454545455,568.448275862069,552.4545454545455C554.9137931034484,552.4545454545455,554.9137931034484,541.5090909090909,541.3793103448277,541.5090909090909C527.844827586207,541.5090909090909,527.844827586207,532.6181818181818,514.3103448275862,532.6181818181818C500.77586206896547,532.6181818181818,500.77586206896547,519.8909090909091,487.2413793103448,519.8909090909091C473.7068965517241,519.8909090909091,473.7068965517241,536.1818181818181,460.17241379310343,536.1818181818181C446.63793103448273,536.1818181818181,446.63793103448273,517.3818181818182,433.10344827586204,517.3818181818182C419.5689655172414,517.3818181818182,419.5689655172414,516.3636363636364,406.0344827586207,516.3636363636364C392.5,516.3636363636364,392.5,540.7454545454545,378.9655172413793,540.7454545454545C365.4310344827586,540.7454545454545,365.4310344827586,549.8909090909091,351.89655172413796,549.8909090909091C311.29310344827593,549.8909090909091,311.29310344827593,555.9818181818182,270.68965517241384,555.9818181818182C257.15517241379314,555.9818181818182,257.15517241379314,551.1818181818181,243.6206896551724,551.1818181818181C230.08620689655172,551.1818181818181,230.08620689655172,556.7272727272727,216.55172413793102,556.7272727272727C203.01724137931035,556.7272727272727,203.01724137931035,553.9818181818182,189.48275862068965,553.9818181818182C175.94827586206895,553.9818181818182,175.94827586206895,555.4545454545455,162.41379310344828,555.4545454545455C135.3448275862069,555.4545454545455,135.3448275862069,555.2181818181818,108.27586206896551,555.2181818181818C94.74137931034483,555.2181818181818,94.74137931034483,554.9454545454545,81.20689655172414,554.9454545454545C67.67241379310344,554.9454545454545,67.67241379310344,560,54.137931034482754,560C40.603448275862064,560,40.603448275862064,556.9818181818182,27.068965517241377,556.9818181818182C13.534482758620689,556.9818181818182,13.534482758620689,558,0,558Z"><title>Australasia</title></path><path fill="rgb(144, 12, 0)" d="M0,528.8C13.534482758620689,528.8,13.534482758620689,422.6727272727273,27.068965517241377,422.6727272727273C40.603448275862064,422.6727272727273,40.603448275862064,543.5636363636363,54.137931034482754,543.5636363636363C67.67241379310344,543.5636363636363,67.67241379310344,516.0363636363636,81.20689655172414,516.0363636363636C94.74137931034483,516.0363636363636,94.74137931034483,470.2727272727273,108.27586206896551,470.2727272727273C135.3448275862069,470.2727272727273,135.3448275862069,355.2181818181818,162.41379310344828,355.2181818181818C175.94827586206895,355.2181818181818,175.94827586206895,323.98181818181814,189.48275862068965,323.98181818181814C203.01724137931035,323.98181818181814,203.01724137931035,368.27272727272725,216.55172413793102,368.27272727272725C230.08620689655172,368.27272727272725,230.08620689655172,476.1818181818182,243.6206896551724,476.1818181818182C257.15517241379314,476.1818181818182,257.15517241379314,325.2727272727273,270.68965517241384,325.2727272727273C311.29310344827593,325.2727272727273,311.29310344827593,400.07272727272726,351.89655172413796,400.07272727272726C365.4310344827586,400.07272727272726,365.4310344827586,430.6,378.9655172413793,430.6C392.5,430.6,392.5,517.3636363636364,406.0344827586207,517.3636363636364C419.5689655172414,517.3636363636364,419.5689655172414,518.3818181818182,433.10344827586204,518.3818181818182C446.63793103448273,518.3818181818182,446.63793103448273,453.0181818181818,460.17241379310343,453.0181818181818C473.7068965517241,453.0181818181818,473.7068965517241,385.3090909090909,487.2413793103448,385.3090909090909C500.77586206896547,385.3090909090909,500.77586206896547,356.56363636363636,514.3103448275862,356.56363636363636C527.844827586207,356.56363636363636,527.844827586207,350.6909090909091,541.3793103448277,350.6909090909091C554.9137931034484,350.6909090909091,554.9137931034484,392.2,568.448275862069,392.2C581.9827586206897,392.2,581.9827586206897,284.2727272727273,595.5172413793103,284.2727272727273C609.051724137931,284.2727272727273,609.051724137931,272.8181818181818,622.5862068965517,272.8181818181818C636.1206896551724,272.8181818181818,636.1206896551724,212.52727272727273,649.6551724137931,212.52727272727273C663.1896551724137,212.52727272727273,663.1896551724137,233.89090909090908,676.7241379310344,233.89090909090908C690.2586206896551,233.89090909090908,690.2586206896551,136.4,703.7931034482759,136.4C717.3275862068965,136.4,717.3275862068965,137.9272727272727,730.8620689655172,137.9272727272727C744.3965517241379,137.9272727272727,744.3965517241379,277.6363636363636,757.9310344827586,277.6363636363636C771.4655172413793,277.6363636363636,771.4655172413793,270.76363636363635,785,270.76363636363635L785,334.90909090909093C771.4655172413793,334.90909090909093,771.4655172413793,343.30909090909086,757.9310344827586,343.30909090909086C744.3965517241379,343.30909090909086,744.3965517241379,213.27272727272725,730.8620689655172,213.27272727272725C717.3275862068965,213.27272727272725,717.3275862068965,209.96363636363637,703.7931034482759,209.96363636363637C690.2586206896551,209.96363636363637,690.2586206896551,302.1090909090909,676.7241379310344,302.1090909090909C663.1896551724137,302.1090909090909,663.1896551724137,288.3818181818182,649.6551724137931,288.3818181818182C636.1206896551724,288.3818181818182,636.1206896551724,367.2545454545455,622.5862068965517,367.2545454545455C609.051724137931,367.2545454545455,609.051724137931,357.5818181818182,595.5172413793103,357.5818181818182C581.9827586206897,357.5818181818182,581.9827586206897,469.3272727272727,568.448275862069,469.3272727272727C554.9137931034484,469.3272727272727,554.9137931034484,432.6545454545455,541.3793103448277,432.6545454545455C527.844827586207,432.6545454545455,527.844827586207,429.1090909090909,514.3103448275862,429.1090909090909C500.77586206896547,429.1090909090909,500.77586206896547,426.54545454545456,487.2413793103448,426.54545454545456C473.7068965517241,426.54545454545456,473.7068965517241,470.8363636363636,460.17241379310343,470.8363636363636C446.63793103448273,470.8363636363636,446.63793103448273,526.5272727272727,433.10344827586204,526.5272727272727C419.5689655172414,526.5272727272727,419.5689655172414,527.8,406.0344827586207,527.8C392.5,527.8,392.5,466.4909090909091,378.9655172413793,466.4909090909091C365.4310344827586,466.4909090909091,365.4310344827586,440.79999999999995,351.89655172413796,440.79999999999995C311.29310344827593,440.79999999999995,311.29310344827593,426.83636363636367,270.68965517241384,426.83636363636367C257.15517241379314,426.83636363636367,257.15517241379314,499.8545454545454,243.6206896551724,499.8545454545454C230.08620689655172,499.8545454545454,230.08620689655172,421.9818181818182,216.55172413793102,421.9818181818182C203.01724137931035,421.9818181818182,203.01724137931035,388.8909090909091,189.48275862068965,388.8909090909091C175.94827586206895,388.8909090909091,175.94827586206895,458.8181818181818,162.41379310344828,458.8181818181818C135.3448275862069,458.8181818181818,135.3448275862069,503.8727272727273,108.27586206896551,503.8727272727273C94.74137931034483,503.8727272727273,94.74137931034483,541.4909090909091,81.20689655172414,541.4909090909091C67.67241379310344,541.4909090909091,67.67241379310344,547.6363636363636,54.137931034482754,547.6363636363636C40.603448275862064,547.6363636363636,40.603448275862064,500.3090909090909,27.068965517241377,500.3090909090909C13.534482758620689,500.3090909090909,13.534482758620689,542.0363636363636,0,542.0363636363636Z"><title>Western Europe</title></path><path fill="rgb(44, 166, 241)" d="M0,553.4363636363637C13.534482758620689,553.4363636363637,13.534482758620689,541.7454545454545,27.068965517241377,541.7454545454545C40.603448275862064,541.7454545454545,40.603448275862064,548.6363636363636,54.137931034482754,548.6363636363636C67.67241379310344,548.6363636363636,67.67241379310344,542.4909090909091,81.20689655172414,542.4909090909091C94.74137931034483,542.4909090909091,94.74137931034483,533.6181818181818,108.27586206896551,533.6181818181818C135.3448275862069,533.6181818181818,135.3448275862069,550.1272727272727,162.41379310344828,550.1272727272727C175.94827586206895,550.1272727272727,175.94827586206895,508.9818181818182,189.48275862068965,508.9818181818182C203.01724137931035,508.9818181818182,203.01724137931035,530.3272727272728,216.55172413793102,530.3272727272728C230.08620689655172,530.3272727272728,230.08620689655172,521.709090909091,243.6206896551724,521.709090909091C257.15517241379314,521.709090909091,257.15517241379314,514.3272727272728,270.68965517241384,514.3272727272728C311.29310344827593,514.3272727272728,311.29310344827593,505.1454545454545,351.89655172413796,505.1454545454545C365.4310344827586,505.1454545454545,365.4310344827586,322.70909090909095,378.9655172413793,322.70909090909095C392.5,322.70909090909095,392.5,322.7272727272727,406.0344827586207,322.7272727272727C419.5689655172414,322.7272727272727,419.5689655172414,323.4909090909091,433.10344827586204,323.4909090909091C446.63793103448273,323.4909090909091,446.63793103448273,290.9090909090909,460.17241379310343,290.9090909090909C473.7068965517241,290.9090909090909,473.7068965517241,286.56363636363636,487.2413793103448,286.56363636363636C500.77586206896547,286.56363636363636,500.77586206896547,246.36363636363632,514.3103448275862,246.36363636363632C527.844827586207,246.36363636363632,527.844827586207,216.81818181818184,541.3793103448277,216.81818181818184C554.9137931034484,216.81818181818184,554.9137931034484,194.94545454545454,568.448275862069,194.94545454545454C581.9827586206897,194.94545454545454,581.9827586206897,483.50909090909096,595.5172413793103,483.50909090909096C609.051724137931,483.50909090909096,609.051724137931,154.47272727272727,622.5862068965517,154.47272727272727C636.1206896551724,154.47272727272727,636.1206896551724,112.76363636363634,649.6551724137931,112.76363636363634C663.1896551724137,112.76363636363634,663.1896551724137,72.80000000000001,676.7241379310344,72.80000000000001C690.2586206896551,72.80000000000001,690.2586206896551,34.0909090909091,703.7931034482759,34.0909090909091C717.3275862068965,34.0909090909091,717.3275862068965,38.41818181818181,730.8620689655172,38.41818181818181C744.3965517241379,38.41818181818181,744.3965517241379,201.2909090909091,757.9310344827586,201.2909090909091C771.4655172413793,201.2909090909091,771.4655172413793,205.61818181818182,785,205.61818181818182L785,269.76363636363635C771.4655172413793,269.76363636363635,771.4655172413793,276.6363636363636,757.9310344827586,276.6363636363636C744.3965517241379,276.6363636363636,744.3965517241379,136.9272727272727,730.8620689655172,136.9272727272727C717.3275862068965,136.9272727272727,717.3275862068965,135.4,703.7931034482759,135.4C690.2586206896551,135.4,690.2586206896551,152.72727272727272,676.7241379310344,152.72727272727272C663.1896551724137,152.72727272727272,663.1896551724137,211.52727272727273,649.6551724137931,211.52727272727273C636.1206896551724,211.52727272727273,636.1206896551724,271.8181818181818,622.5862068965517,271.8181818181818C609.051724137931,271.8181818181818,609.051724137931,510.4909090909091,595.5172413793103,510.4909090909091C581.9827586206897,510.4909090909091,581.9827586206897,391.2,568.448275862069,391.2C554.9137931034484,391.2,554.9137931034484,349.6909090909091,541.3793103448277,349.6909090909091C527.844827586207,349.6909090909091,527.844827586207,355.56363636363636,514.3103448275862,355.56363636363636C500.77586206896547,355.56363636363636,500.77586206896547,384.3090909090909,487.2413793103448,384.3090909090909C473.7068965517241,384.3090909090909,473.7068965517241,382.2909090909091,460.17241379310343,382.2909090909091C446.63793103448273,382.2909090909091,446.63793103448273,401.8909090909091,433.10344827586204,401.8909090909091C419.5689655172414,401.8909090909091,419.5689655172414,398.07272727272726,406.0344827586207,398.07272727272726C392.5,398.07272727272726,392.5,386.8545454545455,378.9655172413793,386.8545454545455C365.4310344827586,386.8545454545455,365.4310344827586,525.7636363636364,351.89655172413796,525.7636363636364C311.29310344827593,525.7636363636364,311.29310344827593,532.1454545454545,270.68965517241384,532.1454545454545C257.15517241379314,532.1454545454545,257.15517241379314,535.709090909091,243.6206896551724,535.709090909091C230.08620689655172,535.709090909091,230.08620689655172,544.0727272727273,216.55172413793102,544.0727272727273C203.01724137931035,544.0727272727273,203.01724137931035,523.7454545454545,189.48275862068965,523.7454545454545C175.94827586206895,523.7454545454545,175.94827586206895,552.6727272727273,162.41379310344828,552.6727272727273C135.3448275862069,552.6727272727273,135.3448275862069,544.8181818181819,108.27586206896551,544.8181818181819C94.74137931034483,544.8181818181819,94.74137931034483,549.1090909090909,81.20689655172414,549.1090909090909C67.67241379310344,549.1090909090909,67.67241379310344,551.6909090909091,54.137931034482754,551.6909090909091C40.603448275862064,551.6909090909091,40.603448275862064,552.1818181818181,27.068965517241377,552.1818181818181C13.534482758620689,552.1818181818181,13.534482758620689,556.4909090909091,0,556.4909090909091Z"><title>Eastern Europe</title></path><path fill="rgb(95, 252, 115)" d="M0,543.0363636363636C13.534482758620689,543.0363636363636,13.534482758620689,526.2363636363636,27.068965517241377,526.2363636363636C40.603448275862064,526.2363636363636,40.603448275862064,433.3636363636364,54.137931034482754,433.3636363636364C67.67241379310344,433.3636363636364,67.67241379310344,486.0181818181818,81.20689655172414,486.0181818181818C94.74137931034483,486.0181818181818,94.74137931034483,504.8727272727273,108.27586206896551,504.8727272727273C135.3448275862069,504.8727272727273,135.3448275862069,459.8181818181818,162.41379310344828,459.8181818181818C175.94827586206895,459.8181818181818,175.94827586206895,452.4909090909091,189.48275862068965,452.4909090909091C203.01724137931035,452.4909090909091,203.01724137931035,461.6545454545454,216.55172413793102,461.6545454545454C230.08620689655172,461.6545454545454,230.08620689655172,391.45454545454544,243.6206896551724,391.45454545454544C257.15517241379314,391.45454545454544,257.15517241379314,464.2181818181818,270.68965517241384,464.2181818181818C311.29310344827593,464.2181818181818,311.29310344827593,441.79999999999995,351.89655172413796,441.79999999999995C365.4310344827586,441.79999999999995,365.4310344827586,467.4909090909091,378.9655172413793,467.4909090909091C392.5,467.4909090909091,392.5,399.07272727272726,406.0344827586207,399.07272727272726C419.5689655172414,399.07272727272726,419.5689655172414,402.8909090909091,433.10344827586204,402.8909090909091C446.63793103448273,402.8909090909091,446.63793103448273,383.2909090909091,460.17241379310343,383.2909090909091C473.7068965517241,383.2909090909091,473.7068965517241,427.54545454545456,487.2413793103448,427.54545454545456C500.77586206896547,427.54545454545456,500.77586206896547,430.1090909090909,514.3103448275862,430.1090909090909C527.844827586207,430.1090909090909,527.844827586207,433.6545454545455,541.3793103448277,433.6545454545455C554.9137931034484,433.6545454545455,554.9137931034484,559,568.448275862069,559C581.9827586206897,559,581.9827586206897,176.6181818181818,595.5172413793103,176.6181818181818C609.051724137931,176.6181818181818,609.051724137931,368.2545454545455,622.5862068965517,368.2545454545455C636.1206896551724,368.2545454545455,636.1206896551724,289.3818181818182,649.6551724137931,289.3818181818182C663.1896551724137,289.3818181818182,663.1896551724137,153.72727272727272,676.7241379310344,153.72727272727272C690.2586206896551,153.72727272727272,690.2586206896551,210.96363636363637,703.7931034482759,210.96363636363637C717.3275862068965,210.96363636363637,717.3275862068965,214.27272727272725,730.8620689655172,214.27272727272725C744.3965517241379,214.27272727272725,744.3965517241379,27.218181818181797,757.9310344827586,27.218181818181797C771.4655172413793,27.218181818181797,771.4655172413793,51.909090909090935,785,51.909090909090935L785,130.05454545454546C771.4655172413793,130.05454545454546,771.4655172413793,116.05454545454546,757.9310344827586,116.05454545454546C744.3965517241379,116.05454545454546,744.3965517241379,285.8,730.8620689655172,285.8C717.3275862068965,285.8,717.3275862068965,281.9818181818182,703.7931034482759,281.9818181818182C690.2586206896551,281.9818181818182,690.2586206896551,232.89090909090908,676.7241379310344,232.89090909090908C663.1896551724137,232.89090909090908,663.1896551724137,357.59999999999997,649.6551724137931,357.59999999999997C636.1206896551724,357.59999999999997,636.1206896551724,422.7272727272727,622.5862068965517,422.7272727272727C609.051724137931,422.7272727272727,609.051724137931,283.2727272727273,595.5172413793103,283.2727272727273C581.9827586206897,283.2727272727273,581.9827586206897,559,568.448275862069,559C554.9137931034484,559,554.9137931034484,478.4545454545455,541.3793103448277,478.4545454545455C527.844827586207,478.4545454545455,527.844827586207,472.10909090909087,514.3103448275862,472.10909090909087C500.77586206896547,472.10909090909087,500.77586206896547,468.0181818181818,487.2413793103448,468.0181818181818C473.7068965517241,468.0181818181818,473.7068965517241,452.0181818181818,460.17241379310343,452.0181818181818C446.63793103448273,452.0181818181818,446.63793103448273,456.0909090909091,433.10344827586204,456.0909090909091C419.5689655172414,456.0909090909091,419.5689655172414,448.45454545454544,406.0344827586207,448.45454545454544C392.5,448.45454545454544,392.5,501.6,378.9655172413793,501.6C365.4310344827586,501.6,365.4310344827586,481,351.89655172413796,481C311.29310344827593,481,311.29310344827593,493.23636363636365,270.68965517241384,493.23636363636365C257.15517241379314,493.23636363636365,257.15517241379314,447.20000000000005,243.6206896551724,447.20000000000005C230.08620689655172,447.20000000000005,230.08620689655172,491.43636363636364,216.55172413793102,491.43636363636364C203.01724137931035,491.43636363636364,203.01724137931035,507.9818181818182,189.48275862068965,507.9818181818182C175.94827586206895,507.9818181818182,175.94827586206895,513.0181818181818,162.41379310344828,513.0181818181818C135.3448275862069,513.0181818181818,135.3448275862069,532.6181818181818,108.27586206896551,532.6181818181818C94.74137931034483,532.6181818181818,94.74137931034483,515.0363636363636,81.20689655172414,515.0363636363636C67.67241379310344,515.0363636363636,67.67241379310344,542.5636363636363,54.137931034482754,542.5636363636363C40.603448275862064,542.5636363636363,40.603448275862064,540.7454545454545,27.068965517241377,540.7454545454545C13.534482758620689,540.7454545454545,13.534482758620689,548.1272727272727,0,548.1272727272727Z"><title>Northern America</title></path><path fill="rgb(214, 57, 15)" d="M0,558C13.534482758620689,558,13.534482758620689,560,27.068965517241377,560C40.603448275862064,560,40.603448275862064,559,54.137931034482754,559C67.67241379310344,559,67.67241379310344,559.4909090909091,81.20689655172414,559.4909090909091C94.74137931034483,559.4909090909091,94.74137931034483,556.2181818181818,108.27586206896551,556.2181818181818C135.3448275862069,556.2181818181818,135.3448275862069,543.7818181818182,162.41379310344828,543.7818181818182C175.94827586206895,543.7818181818182,175.94827586206895,554.9818181818182,189.48275862068965,554.9818181818182C203.01724137931035,554.9818181818182,203.01724137931035,552.9272727272727,216.55172413793102,552.9272727272727C230.08620689655172,552.9272727272727,230.08620689655172,554.9636363636364,243.6206896551724,554.9636363636364C257.15517241379314,554.9636363636364,257.15517241379314,559.7454545454545,270.68965517241384,559.7454545454545C311.29310344827593,559.7454545454545,311.29310344827593,557.4727272727273,351.89655172413796,557.4727272727273C365.4310344827586,557.4727272727273,365.4310344827586,551.1272727272727,378.9655172413793,551.1272727272727C392.5,551.1272727272727,392.5,556.2181818181818,406.0344827586207,556.2181818181818C419.5689655172414,556.2181818181818,419.5689655172414,555.7090909090908,433.10344827586204,555.7090909090908C446.63793103448273,555.7090909090908,446.63793103448273,556.2181818181818,460.17241379310343,556.2181818181818C473.7068965517241,556.2181818181818,473.7068965517241,551.3818181818182,487.2413793103448,551.3818181818182C500.77586206896547,551.3818181818182,500.77586206896547,550.6363636363636,514.3103448275862,550.6363636363636C527.844827586207,550.6363636363636,527.844827586207,560,541.3793103448277,560C554.9137931034484,560,554.9137931034484,537.4727272727273,568.448275862069,537.4727272727273C581.9827586206897,537.4727272727273,581.9827586206897,551.6545454545454,595.5172413793103,551.6545454545454C609.051724137931,551.6545454545454,609.051724137931,550.1454545454545,622.5862068965517,550.1454545454545C636.1206896551724,550.1454545454545,636.1206896551724,532.8727272727273,649.6551724137931,532.8727272727273C663.1896551724137,532.8727272727273,663.1896551724137,529.309090909091,676.7241379310344,529.309090909091C690.2586206896551,529.309090909091,690.2586206896551,527.7636363636364,703.7931034482759,527.7636363636364C717.3275862068965,527.7636363636364,717.3275862068965,529.290909090909,730.8620689655172,529.290909090909C744.3965517241379,529.290909090909,744.3965517241379,521.1454545454545,757.9310344827586,521.1454545454545C771.4655172413793,521.1454545454545,771.4655172413793,536.9090909090909,785,536.9090909090909L785,545.0545454545454C771.4655172413793,545.0545454545454,771.4655172413793,534.8909090909091,757.9310344827586,534.8909090909091C744.3965517241379,534.8909090909091,744.3965517241379,538.709090909091,730.8620689655172,538.709090909091C717.3275862068965,538.709090909091,717.3275862068965,539.7272727272727,703.7931034482759,539.7272727272727C690.2586206896551,539.7272727272727,690.2586206896551,541.5272727272727,676.7241379310344,541.5272727272727C663.1896551724137,541.5272727272727,663.1896551724137,543.0545454545454,649.6551724137931,543.0545454545454C636.1206896551724,543.0545454545454,636.1206896551724,552.9454545454545,622.5862068965517,552.9454545454545C609.051724137931,552.9454545454545,609.051724137931,554.4545454545455,595.5172413793103,554.4545454545455C581.9827586206897,554.4545454545455,581.9827586206897,543.3272727272727,568.448275862069,543.3272727272727C554.9137931034484,543.3272727272727,554.9137931034484,560,541.3793103448277,560C527.844827586207,560,527.844827586207,555.4727272727273,514.3103448275862,555.4727272727273C500.77586206896547,555.4727272727273,500.77586206896547,555.7090909090908,487.2413793103448,555.7090909090908C473.7068965517241,555.7090909090908,473.7068965517241,557.2363636363636,460.17241379310343,557.2363636363636C446.63793103448273,557.2363636363636,446.63793103448273,556.9818181818182,433.10344827586204,556.9818181818182C419.5689655172414,556.9818181818182,419.5689655172414,558,406.0344827586207,558C392.5,558,392.5,554.6909090909091,378.9655172413793,554.6909090909091C365.4310344827586,554.6909090909091,365.4310344827586,558.4909090909091,351.89655172413796,558.4909090909091C311.29310344827593,558.4909090909091,311.29310344827593,560,270.68965517241384,560C257.15517241379314,560,257.15517241379314,556.2363636363636,243.6206896551724,556.2363636363636C230.08620689655172,556.2363636363636,230.08620689655172,554.4545454545455,216.55172413793102,554.4545454545455C203.01724137931035,554.4545454545455,203.01724137931035,555.7454545454545,189.48275862068965,555.7454545454545C175.94827586206895,555.7454545454545,175.94827586206895,549.1272727272727,162.41379310344828,549.1272727272727C135.3448275862069,549.1272727272727,135.3448275862069,558,108.27586206896551,558C94.74137931034483,558,94.74137931034483,560,81.20689655172414,560C67.67241379310344,560,67.67241379310344,559,54.137931034482754,559C40.603448275862064,559,40.603448275862064,560,27.068965517241377,560C13.534482758620689,560,13.534482758620689,558,0,558Z"><title>Sub-Saharan Africa</title></path><path fill="rgb(64, 118, 245)" d="M0,558C13.534482758620689,558,13.534482758620689,560,27.068965517241377,560C40.603448275862064,560,40.603448275862064,558,54.137931034482754,558C67.67241379310344,558,67.67241379310344,560,81.20689655172414,560C94.74137931034483,560,94.74137931034483,559,108.27586206896551,559C135.3448275862069,559,135.3448275862069,559.2363636363636,162.41379310344828,559.2363636363636C175.94827586206895,559.2363636363636,175.94827586206895,556.7454545454545,189.48275862068965,556.7454545454545C203.01724137931035,556.7454545454545,203.01724137931035,549.8909090909091,216.55172413793102,549.8909090909091C230.08620689655172,549.8909090909091,230.08620689655172,536.709090909091,243.6206896551724,536.709090909091C257.15517241379314,536.709090909091,257.15517241379314,541.0181818181818,270.68965517241384,541.0181818181818C311.29310344827593,541.0181818181818,311.29310344827593,559.4909090909091,351.89655172413796,559.4909090909091C365.4310344827586,559.4909090909091,365.4310344827586,546.5636363636363,378.9655172413793,546.5636363636363C392.5,546.5636363636363,392.5,537.6909090909091,406.0344827586207,537.6909090909091C419.5689655172414,537.6909090909091,419.5689655172414,527.5272727272727,433.10344827586204,527.5272727272727C446.63793103448273,527.5272727272727,446.63793103448273,471.8363636363636,460.17241379310343,471.8363636363636C473.7068965517241,471.8363636363636,473.7068965517241,469.0181818181818,487.2413793103448,469.0181818181818C500.77586206896547,469.0181818181818,500.77586206896547,473.10909090909087,514.3103448275862,473.10909090909087C527.844827586207,473.10909090909087,527.844827586207,496.23636363636365,541.3793103448277,496.23636363636365C554.9137931034484,496.23636363636365,554.9137931034484,553.4545454545455,568.448275862069,553.4545454545455C581.9827586206897,553.4545454545455,581.9827586206897,403.8727272727273,595.5172413793103,403.8727272727273C609.051724137931,403.8727272727273,609.051724137931,423.7272727272727,622.5862068965517,423.7272727272727C636.1206896551724,423.7272727272727,636.1206896551724,358.59999999999997,649.6551724137931,358.59999999999997C663.1896551724137,358.59999999999997,663.1896551724137,303.1090909090909,676.7241379310344,303.1090909090909C690.2586206896551,303.1090909090909,690.2586206896551,282.9818181818182,703.7931034482759,282.9818181818182C717.3275862068965,282.9818181818182,717.3275862068965,286.8,730.8620689655172,286.8C744.3965517241379,286.8,744.3965517241379,117.05454545454546,757.9310344827586,117.05454545454546C771.4655172413793,117.05454545454546,771.4655172413793,131.05454545454546,785,131.05454545454546L785,204.61818181818182C771.4655172413793,204.61818181818182,771.4655172413793,200.2909090909091,757.9310344827586,200.2909090909091C744.3965517241379,200.2909090909091,744.3965517241379,352.2181818181818,730.8620689655172,352.2181818181818C717.3275862068965,352.2181818181818,717.3275862068965,334.90909090909093,703.7931034482759,334.90909090909093C690.2586206896551,334.90909090909093,690.2586206896551,360.8909090909091,676.7241379310344,360.8909090909091C663.1896551724137,360.8909090909091,663.1896551724137,412.30909090909086,649.6551724137931,412.30909090909086C636.1206896551724,412.30909090909086,636.1206896551724,462.16363636363633,622.5862068965517,462.16363636363633C609.051724137931,462.16363636363633,609.051724137931,446.6363636363636,595.5172413793103,446.6363636363636C581.9827586206897,446.6363636363636,581.9827586206897,555.7454545454545,568.448275862069,555.7454545454545C554.9137931034484,555.7454545454545,554.9137931034484,511.76363636363635,541.3793103448277,511.76363636363635C527.844827586207,511.76363636363635,527.844827586207,491.6909090909091,514.3103448275862,491.6909090909091C500.77586206896547,491.6909090909091,500.77586206896547,487.8545454545455,487.2413793103448,487.8545454545455C473.7068965517241,487.8545454545455,473.7068965517241,488.8909090909091,460.17241379310343,488.8909090909091C446.63793103448273,488.8909090909091,446.63793103448273,535.1636363636363,433.10344827586204,535.1636363636363C419.5689655172414,535.1636363636363,419.5689655172414,544.309090909091,406.0344827586207,544.309090909091C392.5,544.309090909091,392.5,550.1272727272727,378.9655172413793,550.1272727272727C365.4310344827586,550.1272727272727,365.4310344827586,560,351.89655172413796,560C311.29310344827593,560,311.29310344827593,546.3636363636364,270.68965517241384,546.3636363636364C257.15517241379314,546.3636363636364,257.15517241379314,544.6,243.6206896551724,544.6C230.08620689655172,544.6,230.08620689655172,551.9272727272727,216.55172413793102,551.9272727272727C203.01724137931035,551.9272727272727,203.01724137931035,557,189.48275862068965,557C175.94827586206895,557,175.94827586206895,560,162.41379310344828,560C135.3448275862069,560,135.3448275862069,559,108.27586206896551,559C94.74137931034483,559,94.74137931034483,560,81.20689655172414,560C67.67241379310344,560,67.67241379310344,558,54.137931034482754,558C40.603448275862064,558,40.603448275862064,560,27.068965517241377,560C13.534482758620689,560,13.534482758620689,558,0,558Z"><title>East Asia</title></path><path fill="rgb(251, 105, 25)" d="M0,514.5636363636364C13.534482758620689,514.5636363636364,13.534482758620689,553.1818181818181,27.068965517241377,553.1818181818181C40.603448275862064,553.1818181818181,40.603448275862064,557.4909090909091,54.137931034482754,557.4909090909091C67.67241379310344,557.4909090909091,67.67241379310344,555.9454545454545,81.20689655172414,555.9454545454545C94.74137931034483,555.9454545454545,94.74137931034483,545.8181818181819,108.27586206896551,545.8181818181819C135.3448275862069,545.8181818181819,135.3448275862069,514.0181818181818,162.41379310344828,514.0181818181818C175.94827586206895,514.0181818181818,175.94827586206895,524.7454545454545,189.48275862068965,524.7454545454545C203.01724137931035,524.7454545454545,203.01724137931035,492.43636363636364,216.55172413793102,492.43636363636364C230.08620689655172,492.43636363636364,230.08620689655172,500.8545454545454,243.6206896551724,500.8545454545454C257.15517241379314,500.8545454545454,257.15517241379314,494.23636363636365,270.68965517241384,494.23636363636365C311.29310344827593,494.23636363636365,311.29310344827593,482,351.89655172413796,482C365.4310344827586,482,365.4310344827586,502.6,378.9655172413793,502.6C392.5,502.6,392.5,481.25454545454545,406.0344827586207,481.25454545454545C419.5689655172414,481.25454545454545,419.5689655172414,457.0909090909091,433.10344827586204,457.0909090909091C446.63793103448273,457.0909090909091,446.63793103448273,489.8909090909091,460.17241379310343,489.8909090909091C473.7068965517241,489.8909090909091,473.7068965517241,488.8545454545455,487.2413793103448,488.8545454545455C500.77586206896547,488.8545454545455,500.77586206896547,511.25454545454545,514.3103448275862,511.25454545454545C527.844827586207,511.25454545454545,527.844827586207,512.7636363636364,541.3793103448277,512.7636363636364C554.9137931034484,512.7636363636364,554.9137931034484,470.3272727272727,568.448275862069,470.3272727272727C581.9827586206897,470.3272727272727,581.9827586206897,358.5818181818182,595.5172413793103,358.5818181818182C609.051724137931,358.5818181818182,609.051724137931,490.3818181818182,622.5862068965517,490.3818181818182C636.1206896551724,490.3818181818182,636.1206896551724,452.4909090909091,649.6551724137931,452.4909090909091C663.1896551724137,452.4909090909091,663.1896551724137,361.8909090909091,676.7241379310344,361.8909090909091C690.2586206896551,361.8909090909091,690.2586206896551,484,703.7931034482759,484C717.3275862068965,484,717.3275862068965,353.2181818181818,730.8620689655172,353.2181818181818C744.3965517241379,353.2181818181818,744.3965517241379,482.72727272727275,757.9310344827586,482.72727272727275C771.4655172413793,482.72727272727275,771.4655172413793,335.90909090909093,785,335.90909090909093L785,388.8545454545455C771.4655172413793,388.8545454545455,771.4655172413793,520.1454545454545,757.9310344827586,520.1454545454545C744.3965517241379,520.1454545454545,744.3965517241379,404.6363636363636,730.8620689655172,404.6363636363636C717.3275862068965,404.6363636363636,717.3275862068965,526.7636363636364,703.7931034482759,526.7636363636364C690.2586206896551,526.7636363636364,690.2586206896551,414.3272727272727,676.7241379310344,414.3272727272727C663.1896551724137,414.3272727272727,663.1896551724137,486.8545454545455,649.6551724137931,486.8545454545455C636.1206896551724,486.8545454545455,636.1206896551724,515.5818181818182,622.5862068965517,515.5818181818182C609.051724137931,515.5818181818182,609.051724137931,402.8727272727273,595.5172413793103,402.8727272727273C581.9827586206897,402.8727272727273,581.9827586206897,501.6363636363636,568.448275862069,501.6363636363636C554.9137931034484,501.6363636363636,554.9137931034484,527.5272727272727,541.3793103448277,527.5272727272727C527.844827586207,527.5272727272727,527.844827586207,522.9636363636364,514.3103448275862,522.9636363636364C500.77586206896547,522.9636363636364,500.77586206896547,504.6363636363636,487.2413793103448,504.6363636363636C473.7068965517241,504.6363636363636,473.7068965517241,506.4363636363637,460.17241379310343,506.4363636363637C446.63793103448273,506.4363636363637,446.63793103448273,488.6545454545455,433.10344827586204,488.6545454545455C419.5689655172414,488.6545454545455,419.5689655172414,499.07272727272726,406.0344827586207,499.07272727272726C392.5,499.07272727272726,392.5,522.9636363636364,378.9655172413793,522.9636363636364C365.4310344827586,522.9636363636364,365.4310344827586,504.1454545454545,351.89655172413796,504.1454545454545C311.29310344827593,504.1454545454545,311.29310344827593,513.3272727272728,270.68965517241384,513.3272727272728C257.15517241379314,513.3272727272728,257.15517241379314,520.709090909091,243.6206896551724,520.709090909091C230.08620689655172,520.709090909091,230.08620689655172,514.0727272727272,216.55172413793102,514.0727272727272C203.01724137931035,514.0727272727272,203.01724137931035,539,189.48275862068965,539C175.94827586206895,539,175.94827586206895,542.7818181818182,162.41379310344828,542.7818181818182C135.3448275862069,542.7818181818182,135.3448275862069,551.6727272727273,108.27586206896551,551.6727272727273C94.74137931034483,551.6727272727273,94.74137931034483,558.4909090909091,81.20689655172414,558.4909090909091C67.67241379310344,558.4909090909091,67.67241379310344,558,54.137931034482754,558C40.603448275862064,558,40.603448275862064,554.7090909090908,27.068965517241377,554.7090909090908C13.534482758620689,554.7090909090908,13.534482758620689,527.8,0,527.8Z"><title>Southern Europe</title></path><path fill="rgb(149, 251, 81)" d="M0,549.1272727272727C13.534482758620689,549.1272727272727,13.534482758620689,501.3090909090909,27.068965517241377,501.3090909090909C40.603448275862064,501.3090909090909,40.603448275862064,555.9818181818182,54.137931034482754,555.9818181818182C67.67241379310344,555.9818181818182,67.67241379310344,349.3454545454545,81.20689655172414,349.3454545454545C94.74137931034483,349.3454545454545,94.74137931034483,326.7272727272727,108.27586206896551,326.7272727272727C135.3448275862069,326.7272727272727,135.3448275862069,221.60000000000002,162.41379310344828,221.60000000000002C175.94827586206895,221.60000000000002,175.94827586206895,389.8909090909091,189.48275862068965,389.8909090909091C203.01724137931035,389.8909090909091,203.01724137931035,422.9818181818182,216.55172413793102,422.9818181818182C230.08620689655172,422.9818181818182,230.08620689655172,448.20000000000005,243.6206896551724,448.20000000000005C257.15517241379314,448.20000000000005,257.15517241379314,427.83636363636367,270.68965517241384,427.83636363636367C311.29310344827593,427.83636363636367,311.29310344827593,341.8,351.89655172413796,341.8C365.4310344827586,341.8,365.4310344827586,387.8545454545455,378.9655172413793,387.8545454545455C392.5,387.8545454545455,392.5,449.45454545454544,406.0344827586207,449.45454545454544C419.5689655172414,449.45454545454544,419.5689655172414,489.6545454545455,433.10344827586204,489.6545454545455C446.63793103448273,489.6545454545455,446.63793103448273,507.4363636363637,460.17241379310343,507.4363636363637C473.7068965517241,507.4363636363637,473.7068965517241,520.8909090909091,487.2413793103448,520.8909090909091C500.77586206896547,520.8909090909091,500.77586206896547,492.6909090909091,514.3103448275862,492.6909090909091C527.844827586207,492.6909090909091,527.844827586207,479.4545454545455,541.3793103448277,479.4545454545455C554.9137931034484,479.4545454545455,554.9137931034484,502.6363636363636,568.448275862069,502.6363636363636C581.9827586206897,502.6363636363636,581.9827586206897,447.6363636363636,595.5172413793103,447.6363636363636C609.051724137931,447.6363636363636,609.051724137931,463.16363636363633,622.5862068965517,463.16363636363633C636.1206896551724,463.16363636363633,636.1206896551724,413.30909090909086,649.6551724137931,413.30909090909086C663.1896551724137,413.30909090909086,663.1896551724137,495.9818181818182,676.7241379310344,495.9818181818182C690.2586206896551,495.9818181818182,690.2586206896551,435.6545454545455,703.7931034482759,435.6545454545455C717.3275862068965,435.6545454545455,717.3275862068965,498.5090909090909,730.8620689655172,498.5090909090909C744.3965517241379,498.5090909090909,744.3965517241379,441.76363636363635,757.9310344827586,441.76363636363635C771.4655172413793,441.76363636363635,771.4655172413793,389.8545454545455,785,389.8545454545455L785,441.5272727272727C771.4655172413793,441.5272727272727,771.4655172413793,481.72727272727275,757.9310344827586,481.72727272727275C744.3965517241379,481.72727272727275,744.3965517241379,528.290909090909,730.8620689655172,528.290909090909C717.3275862068965,528.290909090909,717.3275862068965,483,703.7931034482759,483C690.2586206896551,483,690.2586206896551,528.309090909091,676.7241379310344,528.309090909091C663.1896551724137,528.309090909091,663.1896551724137,451.4909090909091,649.6551724137931,451.4909090909091C636.1206896551724,451.4909090909091,636.1206896551724,489.3818181818182,622.5862068965517,489.3818181818182C609.051724137931,489.3818181818182,609.051724137931,482.50909090909096,595.5172413793103,482.50909090909096C581.9827586206897,482.50909090909096,581.9827586206897,523.7636363636364,568.448275862069,523.7636363636364C554.9137931034484,523.7636363636364,554.9137931034484,495.23636363636365,541.3793103448277,495.23636363636365C527.844827586207,495.23636363636365,527.844827586207,510.25454545454545,514.3103448275862,510.25454545454545C500.77586206896547,510.25454545454545,500.77586206896547,534.3818181818182,487.2413793103448,534.3818181818182C473.7068965517241,534.3818181818182,473.7068965517241,522.9636363636364,460.17241379310343,522.9636363636364C446.63793103448273,522.9636363636364,446.63793103448273,506.4545454545454,433.10344827586204,506.4545454545454C419.5689655172414,506.4545454545454,419.5689655172414,480.25454545454545,406.0344827586207,480.25454545454545C392.5,480.25454545454545,392.5,429.6,378.9655172413793,429.6C365.4310344827586,429.6,365.4310344827586,399.07272727272726,351.89655172413796,399.07272727272726C311.29310344827593,399.07272727272726,311.29310344827593,463.2181818181818,270.68965517241384,463.2181818181818C257.15517241379314,463.2181818181818,257.15517241379314,475.1818181818182,243.6206896551724,475.1818181818182C230.08620689655172,475.1818181818182,230.08620689655172,460.6545454545454,216.55172413793102,460.6545454545454C203.01724137931035,460.6545454545454,203.01724137931035,451.4909090909091,189.48275862068965,451.4909090909091C175.94827586206895,451.4909090909091,175.94827586206895,354.2181818181818,162.41379310344828,354.2181818181818C135.3448275862069,354.2181818181818,135.3448275862069,469.2727272727273,108.27586206896551,469.2727272727273C94.74137931034483,469.2727272727273,94.74137931034483,485.0181818181818,81.20689655172414,485.0181818181818C67.67241379310344,485.0181818181818,67.67241379310344,556.4909090909091,54.137931034482754,556.4909090909091C40.603448275862064,556.4909090909091,40.603448275862064,525.2363636363636,27.068965517241377,525.2363636363636C13.534482758620689,525.2363636363636,13.534482758620689,552.4363636363637,0,552.4363636363637Z"><title>Northern Europe</title></path><path fill="rgb(255, 155, 33)" d="M0,558C13.534482758620689,558,13.534482758620689,560,27.068965517241377,560C40.603448275862064,560,40.603448275862064,558,54.137931034482754,558C67.67241379310344,558,67.67241379310344,560,81.20689655172414,560C94.74137931034483,560,94.74137931034483,558,108.27586206896551,558C135.3448275862069,558,135.3448275862069,560,162.41379310344828,560C175.94827586206895,560,175.94827586206895,558,189.48275862068965,558C203.01724137931035,558,203.01724137931035,559.7454545454545,216.55172413793102,559.7454545454545C230.08620689655172,559.7454545454545,230.08620689655172,557.2363636363636,243.6206896551724,557.2363636363636C257.15517241379314,557.2363636363636,257.15517241379314,558.4909090909091,270.68965517241384,558.4909090909091C311.29310344827593,558.4909090909091,311.29310344827593,560,351.89655172413796,560C365.4310344827586,560,365.4310344827586,560,378.9655172413793,560C392.5,560,392.5,559,406.0344827586207,559C419.5689655172414,559,419.5689655172414,559.7454545454545,433.10344827586204,559.7454545454545C446.63793103448273,559.7454545454545,446.63793103448273,559.7454545454545,460.17241379310343,559.7454545454545C473.7068965517241,559.7454545454545,473.7068965517241,560,487.2413793103448,560C500.77586206896547,560,500.77586206896547,560,514.3103448275862,560C527.844827586207,560,527.844827586207,558.7454545454545,541.3793103448277,558.7454545454545C554.9137931034484,558.7454545454545,554.9137931034484,558,568.448275862069,558C581.9827586206897,558,581.9827586206897,559.7454545454545,595.5172413793103,559.7454545454545C609.051724137931,559.7454545454545,609.051724137931,553.9454545454545,622.5862068965517,553.9454545454545C636.1206896551724,553.9454545454545,636.1206896551724,553.1818181818181,649.6551724137931,553.1818181818181C663.1896551724137,553.1818181818181,663.1896551724137,551.909090909091,676.7241379310344,551.909090909091C690.2586206896551,551.909090909091,690.2586206896551,551.8909090909091,703.7931034482759,551.8909090909091C717.3275862068965,551.8909090909091,717.3275862068965,552.4,730.8620689655172,552.4C744.3965517241379,552.4,744.3965517241379,551.3818181818182,757.9310344827586,551.3818181818182C771.4655172413793,551.3818181818182,771.4655172413793,550.6181818181818,785,550.6181818181818L785,553.9272727272727C771.4655172413793,553.9272727272727,771.4655172413793,555.4545454545455,757.9310344827586,555.4545454545455C744.3965517241379,555.4545454545455,744.3965517241379,555.7090909090908,730.8620689655172,555.7090909090908C717.3275862068965,555.7090909090908,717.3275862068965,554.9454545454545,703.7931034482759,554.9454545454545C690.2586206896551,554.9454545454545,690.2586206896551,554.9636363636364,676.7241379310344,554.9636363636364C663.1896551724137,554.9636363636364,663.1896551724137,555.7272727272727,649.6551724137931,555.7272727272727C636.1206896551724,555.7272727272727,636.1206896551724,555.2181818181818,622.5862068965517,555.2181818181818C609.051724137931,555.2181818181818,609.051724137931,560,595.5172413793103,560C581.9827586206897,560,581.9827586206897,558,568.448275862069,558C554.9137931034484,558,554.9137931034484,559,541.3793103448277,559C527.844827586207,559,527.844827586207,560,514.3103448275862,560C500.77586206896547,560,500.77586206896547,560,487.2413793103448,560C473.7068965517241,560,473.7068965517241,560,460.17241379310343,560C446.63793103448273,560,446.63793103448273,560,433.10344827586204,560C419.5689655172414,560,419.5689655172414,559,406.0344827586207,559C392.5,559,392.5,560,378.9655172413793,560C365.4310344827586,560,365.4310344827586,560,351.89655172413796,560C311.29310344827593,560,311.29310344827593,558.7454545454545,270.68965517241384,558.7454545454545C257.15517241379314,558.7454545454545,257.15517241379314,558,243.6206896551724,558C230.08620689655172,558,230.08620689655172,560,216.55172413793102,560C203.01724137931035,560,203.01724137931035,558,189.48275862068965,558C175.94827586206895,558,175.94827586206895,560,162.41379310344828,560C135.3448275862069,560,135.3448275862069,558,108.27586206896551,558C94.74137931034483,558,94.74137931034483,560,81.20689655172414,560C67.67241379310344,560,67.67241379310344,558,54.137931034482754,558C40.603448275862064,558,40.603448275862064,560,27.068965517241377,560C13.534482758620689,560,13.534482758620689,558,0,558Z"><title>Southeast Asia</title></path><path fill="rgb(74, 68, 188)" d="M0,558C13.534482758620689,558,13.534482758620689,560,27.068965517241377,560C40.603448275862064,560,40.603448275862064,558,54.137931034482754,558C67.67241379310344,558,67.67241379310344,560,81.20689655172414,560C94.74137931034483,560,94.74137931034483,558,108.27586206896551,558C135.3448275862069,558,135.3448275862069,560,162.41379310344828,560C175.94827586206895,560,175.94827586206895,557,189.48275862068965,557C203.01724137931035,557,203.01724137931035,560,216.55172413793102,560C230.08620689655172,560,230.08620689655172,558,243.6206896551724,558C257.15517241379314,558,257.15517241379314,560,270.68965517241384,560C311.29310344827593,560,311.29310344827593,560,351.89655172413796,560C365.4310344827586,560,365.4310344827586,560,378.9655172413793,560C392.5,560,392.5,558,406.0344827586207,558C419.5689655172414,558,419.5689655172414,560,433.10344827586204,560C446.63793103448273,560,446.63793103448273,560,460.17241379310343,560C473.7068965517241,560,473.7068965517241,560,487.2413793103448,560C500.77586206896547,560,500.77586206896547,559,514.3103448275862,559C527.844827586207,559,527.844827586207,559,541.3793103448277,559C554.9137931034484,559,554.9137931034484,557,568.448275862069,557C581.9827586206897,557,581.9827586206897,560,595.5172413793103,560C609.051724137931,560,609.051724137931,560,622.5862068965517,560C636.1206896551724,560,636.1206896551724,560,649.6551724137931,560C663.1896551724137,560,663.1896551724137,547.6,676.7241379310344,547.6C690.2586206896551,547.6,690.2586206896551,547.8363636363637,703.7931034482759,547.8363636363637C717.3275862068965,547.8363636363637,717.3275862068965,548.0909090909091,730.8620689655172,548.0909090909091C744.3965517241379,548.0909090909091,744.3965517241379,544.5272727272727,757.9310344827586,544.5272727272727C771.4655172413793,544.5272727272727,771.4655172413793,546.0545454545454,785,546.0545454545454L785,549.6181818181818C771.4655172413793,549.6181818181818,771.4655172413793,550.3818181818182,757.9310344827586,550.3818181818182C744.3965517241379,550.3818181818182,744.3965517241379,551.4,730.8620689655172,551.4C717.3275862068965,551.4,717.3275862068965,550.8909090909091,703.7931034482759,550.8909090909091C690.2586206896551,550.8909090909091,690.2586206896551,550.909090909091,676.7241379310344,550.909090909091C663.1896551724137,550.909090909091,663.1896551724137,560,649.6551724137931,560C636.1206896551724,560,636.1206896551724,560,622.5862068965517,560C609.051724137931,560,609.051724137931,560,595.5172413793103,560C581.9827586206897,560,581.9827586206897,557,568.448275862069,557C554.9137931034484,557,554.9137931034484,559,541.3793103448277,559C527.844827586207,559,527.844827586207,559,514.3103448275862,559C500.77586206896547,559,500.77586206896547,560,487.2413793103448,560C473.7068965517241,560,473.7068965517241,560,460.17241379310343,560C446.63793103448273,560,446.63793103448273,560,433.10344827586204,560C419.5689655172414,560,419.5689655172414,558,406.0344827586207,558C392.5,558,392.5,560,378.9655172413793,560C365.4310344827586,560,365.4310344827586,560,351.89655172413796,560C311.29310344827593,560,311.29310344827593,560,270.68965517241384,560C257.15517241379314,560,257.15517241379314,558,243.6206896551724,558C230.08620689655172,558,230.08620689655172,560,216.55172413793102,560C203.01724137931035,560,203.01724137931035,557,189.48275862068965,557C175.94827586206895,557,175.94827586206895,560,162.41379310344828,560C135.3448275862069,560,135.3448275862069,558,108.27586206896551,558C94.74137931034483,558,94.74137931034483,560,81.20689655172414,560C67.67241379310344,560,67.67241379310344,558,54.137931034482754,558C40.603448275862064,558,40.603448275862064,560,27.068965517241377,560C13.534482758620689,560,13.534482758620689,558,0,558Z"><title>Central Asia</title></path><path fill="rgb(203, 232, 57)" d="M0,558C13.534482758620689,558,13.534482758620689,560,27.068965517241377,560C40.603448275862064,560,40.603448275862064,558,54.137931034482754,558C67.67241379310344,558,67.67241379310344,560,81.20689655172414,560C94.74137931034483,560,94.74137931034483,558,108.27586206896551,558C135.3448275862069,558,135.3448275862069,560,162.41379310344828,560C175.94827586206895,560,175.94827586206895,557,189.48275862068965,557C203.01724137931035,557,203.01724137931035,560,216.55172413793102,560C230.08620689655172,560,230.08620689655172,558,243.6206896551724,558C257.15517241379314,558,257.15517241379314,560,270.68965517241384,560C311.29310344827593,560,311.29310344827593,560,351.89655172413796,560C365.4310344827586,560,365.4310344827586,560,378.9655172413793,560C392.5,560,392.5,558,406.0344827586207,558C419.5689655172414,558,419.5689655172414,560,433.10344827586204,560C446.63793103448273,560,446.63793103448273,560,460.17241379310343,560C473.7068965517241,560,473.7068965517241,560,487.2413793103448,560C500.77586206896547,560,500.77586206896547,559,514.3103448275862,559C527.844827586207,559,527.844827586207,559,541.3793103448277,559C554.9137931034484,559,554.9137931034484,557,568.448275862069,557C581.9827586206897,557,581.9827586206897,560,595.5172413793103,560C609.051724137931,560,609.051724137931,560,622.5862068965517,560C636.1206896551724,560,636.1206896551724,559,649.6551724137931,559C663.1896551724137,559,663.1896551724137,558.4909090909091,676.7241379310344,558.4909090909091C690.2586206896551,558.4909090909091,690.2586206896551,560,703.7931034482759,560C717.3275862068965,560,717.3275862068965,560,730.8620689655172,560C744.3965517241379,560,744.3965517241379,560,757.9310344827586,560C771.4655172413793,560,771.4655172413793,560,785,560L785,560C771.4655172413793,560,771.4655172413793,560,757.9310344827586,560C744.3965517241379,560,744.3965517241379,560,730.8620689655172,560C717.3275862068965,560,717.3275862068965,560,703.7931034482759,560C690.2586206896551,560,690.2586206896551,558.7454545454545,676.7241379310344,558.7454545454545C663.1896551724137,558.7454545454545,663.1896551724137,559,649.6551724137931,559C636.1206896551724,559,636.1206896551724,560,622.5862068965517,560C609.051724137931,560,609.051724137931,560,595.5172413793103,560C581.9827586206897,560,581.9827586206897,557,568.448275862069,557C554.9137931034484,557,554.9137931034484,559,541.3793103448277,559C527.844827586207,559,527.844827586207,559,514.3103448275862,559C500.77586206896547,559,500.77586206896547,560,487.2413793103448,560C473.7068965517241,560,473.7068965517241,560,460.17241379310343,560C446.63793103448273,560,446.63793103448273,560,433.10344827586204,560C419.5689655172414,560,419.5689655172414,558,406.0344827586207,558C392.5,558,392.5,560,378.9655172413793,560C365.4310344827586,560,365.4310344827586,560,351.89655172413796,560C311.29310344827593,560,311.29310344827593,560,270.68965517241384,560C257.15517241379314,560,257.15517241379314,558,243.6206896551724,558C230.08620689655172,558,230.08620689655172,560,216.55172413793102,560C203.01724137931035,560,203.01724137931035,557,189.48275862068965,557C175.94827586206895,557,175.94827586206895,560,162.41379310344828,560C135.3448275862069,560,135.3448275862069,558,108.27586206896551,558C94.74137931034483,558,94.74137931034483,560,81.20689655172414,560C67.67241379310344,560,67.67241379310344,558,54.137931034482754,558C40.603448275862064,558,40.603448275862064,560,27.068965517241377,560C13.534482758620689,560,13.534482758620689,558,0,558Z"><title>Polynesia</title></path></g><g id="xAxis" transform="translate(0,560)" fill="none" font-size="10" font-family="sans-serif" text-anchor="middle"><path class="domain" stroke="currentColor" d="M0,0H785"/><g class="tick" opacity="1" transform="translate(27.068965517241377,0)"><line stroke="currentColor" y2="6"/><text fill="currentColor" y="9" dy="0.71em">1,900</text></g><g class="tick" opacity="1" transform="translate(94.74137931034483,0)"><line stroke="currentColor" y2="6"/><text fill="currentColor" y="9" dy="0.71em">1,910</text></g><g class="tick" opacity="1" transform="translate(162.41379310344828,0)"><line stroke="currentColor" y2="6"/><text fill="currentColor" y="9" dy="0.71em">1,920</text></g><g class="tick" opacity="1" transform="translate(230.08620689655172,0)"><line stroke="currentColor" y2="6"/><text fill="currentColor" y="9" dy="0.71em">1,930</text></g><g class="tick" opacity="1" transform="translate(297.7586206896552,0)"><line stroke="currentColor" y2="6"/><text fill="currentColor" y="9" dy="0.71em">1,940</text></g><g class="tick" opacity="1" transform="translate(365.4310344827586,0)"><line stroke="currentColor" y2="6"/><text fill="currentColor" y="9" dy="0.71em">1,950</text></g><g class="tick" opacity="1" transform="translate(433.10344827586204,0)"><line stroke="currentColor" y2="6"/><text fill="currentColor" y="9" dy="0.71em">1,960</text></g><g class="tick" opacity="1" transform="translate(500.7758620689656,0)"><line stroke="currentColor" y2="6"/><text fill="currentColor" y="9" dy="0.71em">1,970</text></g><g class="tick" opacity="1" transform="translate(568.448275862069,0)"><line stroke="currentColor" y2="6"/><text fill="currentColor" y="9" dy="0.71em">1,980</text></g><g class="tick" opacity="1" transform="translate(636.1206896551723,0)"><line stroke="currentColor" y2="6"/><text fill="currentColor" y="9" dy="0.71em">1,990</text></g><g class="tick" opacity="1" transform="translate(703.7931034482759,0)"><line stroke="currentColor" y2="6"/><text fill="currentColor" y="9" dy="0.71em">2,000</text></g><g class="tick" opacity="1" transform="translate(771.4655172413793,0)"><line stroke="currentColor" y2="6"/><text fill="currentColor" y="9" dy="0.71em">2,010</text></g></g><text y="556" x="785" text-anchor="end" style="font-family: Arial, sans-serif; font-size: 12px; fill: rgb(123, 123, 123); font-weight: bold;">Year</text><text x="4" text-anchor="start" dominant-baseline="hanging" style="font-family: Arial, sans-serif; font-size: 12px; fill: rgb(123, 123, 123); font-weight: bold;">Medals</text><g id="labels"><text x="406.0344827586207" y="532.7454545454545" text-anchor="middle" alignment-baseline="middle" style="font-family: Arial, sans-serif; font-size: 10px; fill: black; font-weight: bold;">South Asia</text><text x="703.7931034482759" y="557.2181818181818" text-anchor="middle" alignment-baseline="middle" style="font-family: Arial, sans-serif; font-size: 10px; fill: black; font-weight: bold;">North Africa</text><text x="757.9310344827586" y="371.2909090909091" text-anchor="middle" alignment-baseline="middle" style="font-family: Arial, sans-serif; font-size: 10px; fill: black; font-weight: bold;">Latin America and the Caribbean</text><text x="785" y="530.1818181818181" text-anchor="end" alignment-baseline="middle" style="font-family: Arial, sans-serif; font-size: 10px; fill: black; font-weight: bold;">Western Asia</text><text x="703.7931034482759" y="410.8545454545454" text-anchor="middle" alignment-baseline="middle" style="font-family: Arial, sans-serif; font-size: 10px; fill: black; font-weight: bold;">Australasia</text><text x="162.41379310344828" y="407.0181818181818" text-anchor="middle" alignment-baseline="middle" style="font-family: Arial, sans-serif; font-size: 10px; fill: black; font-weight: bold;">Western Europe</text><text x="568.448275862069" y="293.07272727272726" text-anchor="middle" alignment-baseline="middle" style="font-family: Arial, sans-serif; font-size: 10px; fill: black; font-weight: bold;">Eastern Europe</text><text x="54.137931034482754" y="487.9636363636364" text-anchor="middle" alignment-baseline="middle" style="font-family: Arial, sans-serif; font-size: 10px; fill: black; font-weight: bold;">Northern America</text><text x="757.9310344827586" y="528.0181818181818" text-anchor="middle" alignment-baseline="middle" style="font-family: Arial, sans-serif; font-size: 10px; fill: black; font-weight: bold;">Sub-Saharan Africa</text><text x="757.9310344827586" y="158.6727272727273" text-anchor="middle" alignment-baseline="middle" style="font-family: Arial, sans-serif; font-size: 10px; fill: black; font-weight: bold;">East Asia</text><text x="785" y="362.3818181818182" text-anchor="end" alignment-baseline="middle" style="font-family: Arial, sans-serif; font-size: 10px; fill: black; font-weight: bold;">Southern Europe</text><text x="108.27586206896551" y="398" text-anchor="middle" alignment-baseline="middle" style="font-family: Arial, sans-serif; font-size: 10px; fill: black; font-weight: bold;">Northern Europe</text><text x="757.9310344827586" y="553.4181818181818" text-anchor="middle" alignment-baseline="middle" style="font-family: Arial, sans-serif; font-size: 10px; fill: black; font-weight: bold;">Southeast Asia</text><text x="757.9310344827586" y="547.4545454545454" text-anchor="middle" alignment-baseline="middle" style="font-family: Arial, sans-serif; font-size: 10px; fill: black; font-weight: bold;">Central Asia</text><text x="676.7241379310344" y="558.6181818181818" text-anchor="middle" alignment-baseline="middle" style="font-family: Arial, sans-serif; font-size: 10px; fill: black; font-weight: bold;">Polynesia</text></g></g><text x="4" y="4" style="font-family: Arial, sans-serif; font-size: 12px; fill: black; font-weight: bold; dominant-baseline: hanging;"/></g></g></svg>
